<svg width="268" height="74" viewBox="0 0 268 74" fill="none" xmlns="http://www.w3.org/2000/svg">
<path d="M113.397 0.5C119.283 0.5 124.511 1.1453 129.072 2.44434H129.071C133.683 3.71911 137.327 5.88371 139.97 8.95605L140.219 9.25C142.75 12.3237 143.988 16.4586 143.988 21.5986C143.988 30.8164 141.487 37.5593 136.369 41.6904C131.287 45.7929 123.72 47.8018 113.755 47.8018C111.448 47.8018 109.39 47.6776 107.583 47.4307V55.8027H114.076V72.834H74.5656V55.8027H81.5509V17.3516H74.7443V0.5H113.397ZM107.673 32.2041H109.009C112.334 32.204 114.735 31.47 116.302 30.0898C117.856 28.7203 118.674 26.6386 118.674 23.748C118.674 21.6642 117.977 20.117 116.622 19.0332C115.243 17.9296 113.363 17.3516 110.934 17.3516H107.673V32.2041Z" fill="#ECECEC" stroke="black"/>
<path d="M68.5352 0.589546V29.6218H55.0693L55.0029 29.1989L53.1436 17.3522H47.5332V55.7136H54.877V72.8337H13.9785V55.7136H21.3223V17.3522H15.9365L14.0771 29.1989L14.0107 29.6218H0.5V0.589546H68.5352Z" fill="#ECECEC" stroke="black"/>
<path d="M232.084 1.33398H245.97L255.784 23.4483L264.013 1.33398H267.313L255.998 31.334H245.37L232.084 1.33398Z" fill="#ECECEC"/>
<path d="M199.205 1.33398H230.362V3.86255H214.291V14.9625H222.176V17.534H214.291V28.7625H230.362V31.334H199.205V1.33398Z" fill="#ECECEC"/>
<path d="M159.571 1.33398H182.113C186.199 1.33398 189.728 2.79113 192.699 5.70541C195.642 8.64826 197.113 12.1768 197.113 16.2911C197.113 20.4625 195.642 24.0197 192.699 26.9625C189.756 29.8768 186.228 31.334 182.113 31.334H159.571V1.33398ZM177.142 28.8482C178.771 28.8482 179.942 28.3197 180.656 27.2625C181.342 26.234 181.771 24.7768 181.942 22.8911C182.085 21.6625 182.156 19.4625 182.156 16.2911C182.156 13.834 182.071 11.4911 181.899 9.26255C181.728 7.57684 181.299 6.29112 180.613 5.40541C179.899 4.34827 178.742 3.8197 177.142 3.8197H174.571V28.8482H177.142Z" fill="#ECECEC"/>
<path d="M262.261 62.0915C264.038 62.5694 265.368 63.2042 266.249 63.9957C267.13 64.7724 267.571 65.788 267.571 67.0425C267.571 68.0432 267.257 68.9393 266.63 69.7309C266.002 70.5224 265.076 71.1422 263.852 71.5903C262.642 72.0383 261.171 72.2624 259.438 72.2624C257.392 72.2624 255.585 72.001 254.017 71.4783C252.464 70.9406 251.246 70.2909 250.365 69.5292L251.105 68.5211C251.881 69.1334 252.859 69.6562 254.039 70.0893C255.219 70.5224 256.489 70.739 257.848 70.739C258.729 70.739 259.394 70.612 259.842 70.3581C260.305 70.1042 260.536 69.7458 260.536 69.2828C260.536 68.4763 259.737 67.849 258.139 67.401L255.227 66.5497C253.644 66.0717 252.419 65.4071 251.553 64.5558C250.701 63.7045 250.276 62.6964 250.276 61.5314C250.276 60.5606 250.582 59.6795 251.194 58.8879C251.806 58.0963 252.695 57.4765 253.86 57.0285C255.04 56.5655 256.451 56.334 258.094 56.334C259.662 56.334 261.104 56.5132 262.418 56.8717C263.747 57.2301 264.83 57.6632 265.666 58.171L264.927 59.2015C264.225 58.7983 263.381 58.4548 262.396 58.171C261.425 57.8872 260.402 57.7454 259.326 57.7454C258.385 57.7454 257.661 57.8947 257.153 58.1934C256.66 58.4772 256.414 58.873 256.414 59.3808C256.414 59.7691 256.601 60.1126 256.974 60.4113C257.347 60.6951 258.057 60.9788 259.102 61.2626L262.261 62.0915Z" fill="#ECECEC"/>
<path d="M219.007 56.4683H226.624L231.866 68.3194L236.28 56.4683H239.64L244.793 68.0506L249.094 56.4683H250.819L244.905 72.1503H238.117L234.868 64.8021L232.09 72.1503H225.952L219.007 56.4683Z" fill="#ECECEC"/>
<path d="M209.92 72.2624C207.919 72.2624 206.111 71.9562 204.498 71.3439C202.885 70.7315 201.609 69.8279 200.668 68.6331C199.742 67.4234 199.279 65.9747 199.279 64.287C199.279 62.6142 199.749 61.1805 200.69 59.9856C201.631 58.7908 202.9 57.8872 204.498 57.2749C206.111 56.6476 207.919 56.334 209.92 56.334C211.906 56.334 213.699 56.6476 215.297 57.2749C216.91 57.8872 218.179 58.7908 219.105 59.9856C220.046 61.1805 220.516 62.6142 220.516 64.287C220.516 65.9747 220.046 67.4234 219.105 68.6331C218.179 69.8279 216.91 70.7315 215.297 71.3439C213.699 71.9562 211.906 72.2624 209.92 72.2624ZM209.92 70.9406C210.547 70.9406 211.01 70.6568 211.309 70.0893C211.563 69.6562 211.735 68.887 211.824 67.7818C211.869 67.1993 211.891 66.0344 211.891 64.287C211.891 62.5246 211.854 61.2775 211.779 60.5457C211.735 59.6496 211.57 58.97 211.287 58.5071C210.988 57.9395 210.532 57.6557 209.92 57.6557C209.293 57.6557 208.822 57.9395 208.509 58.5071C208.255 58.9551 208.09 59.6347 208.016 60.5457C207.956 61.3223 207.926 62.5694 207.926 64.287C207.926 66.2286 207.949 67.3935 207.993 67.7818C208.053 68.8123 208.217 69.5815 208.486 70.0893C208.8 70.6568 209.278 70.9406 209.92 70.9406Z" fill="#ECECEC"/>
<path d="M177.995 56.4683H185.612V63.4804H190.563V56.4683H198.18V72.1503H190.563V64.9814H185.612V72.1503H177.995V56.4683Z" fill="#ECECEC"/>
<path d="M171.556 62.0915C173.333 62.5694 174.663 63.2042 175.544 63.9957C176.425 64.7724 176.866 65.788 176.866 67.0425C176.866 68.0432 176.552 68.9393 175.925 69.7309C175.297 70.5224 174.371 71.1422 173.147 71.5903C171.937 72.0383 170.466 72.2624 168.733 72.2624C166.687 72.2624 164.88 72.001 163.312 71.4783C161.759 70.9406 160.541 70.2909 159.66 69.5292L160.399 68.5211C161.176 69.1334 162.154 69.6562 163.334 70.0893C164.514 70.5224 165.784 70.739 167.143 70.739C168.024 70.739 168.688 70.612 169.137 70.3581C169.6 70.1042 169.831 69.7458 169.831 69.2828C169.831 68.4763 169.032 67.849 167.434 67.401L164.522 66.5497C162.938 66.0717 161.714 65.4071 160.848 64.5558C159.996 63.7045 159.571 62.6964 159.571 61.5314C159.571 60.5606 159.877 59.6795 160.489 58.8879C161.101 58.0963 161.99 57.4765 163.155 57.0285C164.335 56.5655 165.746 56.334 167.389 56.334C168.957 56.334 170.399 56.5132 171.713 56.8717C173.042 57.2301 174.125 57.6632 174.961 58.171L174.222 59.2015C173.52 58.7983 172.676 58.4548 171.69 58.171C170.72 57.8872 169.697 57.7454 168.621 57.7454C167.68 57.7454 166.956 57.8947 166.448 58.1934C165.955 58.4772 165.709 58.873 165.709 59.3808C165.709 59.7691 165.896 60.1126 166.269 60.4113C166.642 60.6951 167.352 60.9788 168.397 61.2626L171.556 62.0915Z" fill="#ECECEC"/>
<rect x="159.571" y="42.334" width="108" height="4" fill="#AC0B0B"/>
</svg>
